<?xml version="1.0" encoding="UTF-8"?><svg id="b" xmlns="http://www.w3.org/2000/svg" viewBox="0 0 33.21 33.21"><defs><style>.d{fill:#1c75ba;stroke-width:0px;}</style></defs><g id="c"><path class="d" d="m33.21,6.23v20.76c0,1.72-.61,3.18-1.83,4.4-1.22,1.22-2.68,1.83-4.4,1.83H6.23c-1.72,0-3.18-.61-4.4-1.83-1.22-1.22-1.83-2.68-1.83-4.4V6.23c0-1.72.61-3.18,1.83-4.4S4.51,0,6.23,0h20.76c1.72,0,3.18.61,4.4,1.83,1.22,1.22,1.83,2.68,1.83,4.4Zm-22.77,1.95c-.01-.75-.27-1.37-.78-1.86-.5-.49-1.17-.74-2.01-.74s-1.52.25-2.04.74c-.53.49-.79,1.11-.79,1.86s.26,1.35.77,1.85,1.18.75,2,.75h.02c.85,0,1.54-.25,2.05-.75s.78-1.11.78-1.85Zm-5.32,19.63h4.99v-15h-4.99v15Zm17.97,0h4.99v-8.6c0-2.22-.53-3.9-1.58-5.04-1.05-1.14-2.44-1.71-4.17-1.71-1.96,0-3.47.84-4.52,2.53h.04v-2.18h-4.99c.04.95.04,5.95,0,15h4.99v-8.39c0-.55.05-.95.15-1.21.22-.5.54-.93.97-1.29.43-.35.97-.53,1.6-.53,1.67,0,2.51,1.13,2.51,3.39v8.02Z"/></g></svg>